<svg width="15" height="15" viewBox="0 0 15 15" fill="none" xmlns="http://www.w3.org/2000/svg">
<g clip-path="url(#clip0_519_82)">
<path d="M11.4844 14.0625C11.0318 14.0885 10.581 13.9878 10.1825 13.7718C9.78399 13.5558 9.45358 13.233 9.22837 12.8396C9.00315 12.4463 8.89204 11.9979 8.90751 11.5449C8.92297 11.0918 9.06441 10.6521 9.31594 10.275L11.0109 7.75219C11.0631 7.67456 11.1336 7.61095 11.2162 7.56697C11.2987 7.52299 11.3908 7.49998 11.4844 7.49998C11.5779 7.49998 11.67 7.52299 11.7526 7.56697C11.8351 7.61095 11.9056 7.67456 11.9578 7.75219L13.6219 10.2258C13.8971 10.6331 14.05 11.1106 14.0625 11.602C14.0458 12.2698 13.7651 12.9038 13.2818 13.3649C12.7986 13.8261 12.1522 14.077 11.4844 14.0625ZM11.4844 8.72813L10.1081 10.7752C9.94616 11.0106 9.85461 11.2872 9.8442 11.5728C9.8338 11.8583 9.90497 12.1409 10.0494 12.3875C10.1938 12.6341 10.4054 12.8344 10.6596 12.965C10.9137 13.0956 11.1998 13.1511 11.4844 13.125C11.9036 13.1396 12.3116 12.9875 12.619 12.7021C12.9265 12.4167 13.1084 12.0212 13.125 11.602C13.1141 11.2877 13.0115 10.9835 12.8297 10.7269L11.4844 8.72813ZM5.15625 7.5V5.15625H5.625C6.12209 5.15563 6.59864 4.95789 6.95014 4.60639C7.30164 4.25489 7.49938 3.77834 7.5 3.28125V1.875H6.09375C5.61374 1.87579 5.15253 2.06165 4.80609 2.39391C4.56336 1.95317 4.20689 1.58559 3.77381 1.32944C3.34074 1.07328 2.84691 0.93794 2.34375 0.9375H0.9375V2.34375C0.938368 3.08941 1.23496 3.80427 1.76222 4.33153C2.28948 4.85879 3.00435 5.15538 3.75 5.15625H4.21875V7.5H0.9375V8.4375H7.5V7.5H5.15625ZM6.09375 2.8125H6.5625V3.28125C6.56225 3.52981 6.4634 3.76813 6.28764 3.94389C6.11188 4.11965 5.87356 4.2185 5.625 4.21875H5.15625V3.75C5.1565 3.50144 5.25535 3.26312 5.43111 3.08736C5.60687 2.9116 5.84519 2.81275 6.09375 2.8125ZM3.75 4.21875C3.25291 4.21813 2.77636 4.02039 2.42486 3.66889C2.07336 3.31739 1.87562 2.84084 1.875 2.34375V1.875H2.34375C2.84084 1.87562 3.31739 2.07336 3.66889 2.42486C4.02039 2.77636 4.21813 3.25291 4.21875 3.75V4.21875H3.75ZM0.9375 9.84375H7.5V10.7813H0.9375V9.84375ZM0.9375 12.1875H7.5V13.125H0.9375V12.1875Z" fill="#282828"/>
</g>
<defs>
<clipPath id="clip0_519_82">
<rect width="15" height="15" fill="#282828"/>
</clipPath>
</defs>
</svg>
