<svg width="15" height="15" viewBox="0 0 15 15" fill="none" xmlns="http://www.w3.org/2000/svg">
<path d="M7.3125 0C3.28043 0 0 3.28043 0 7.3125C0 11.3446 3.28043 14.625 7.3125 14.625C11.3446 14.625 14.625 11.3446 14.625 7.3125C14.625 3.28043 11.3446 0 7.3125 0ZM9.96012 9.16488C10.0145 9.2166 10.0581 9.27868 10.0881 9.34748C10.1182 9.41629 10.1342 9.49041 10.1351 9.56548C10.1361 9.64056 10.122 9.71506 10.0937 9.78461C10.0654 9.85416 10.0235 9.91734 9.97043 9.97043C9.91734 10.0235 9.85416 10.0654 9.78461 10.0937C9.71506 10.122 9.64056 10.1361 9.56548 10.1351C9.49041 10.1342 9.41629 10.1182 9.34748 10.0881C9.27868 10.0581 9.2166 10.0145 9.16488 9.96012L7.3125 8.10809L5.46012 9.96012C5.35377 10.0612 5.21216 10.1166 5.06548 10.1148C4.9188 10.1129 4.77866 10.0538 4.67494 9.95006C4.57121 9.84634 4.51211 9.7062 4.51023 9.55952C4.50835 9.41284 4.56385 9.27123 4.66488 9.16488L6.51691 7.3125L4.66488 5.46012C4.56385 5.35377 4.50835 5.21216 4.51023 5.06548C4.51211 4.9188 4.57121 4.77866 4.67494 4.67494C4.77866 4.57121 4.9188 4.51211 5.06548 4.51023C5.21216 4.50835 5.35377 4.56385 5.46012 4.66488L7.3125 6.51691L9.16488 4.66488C9.27123 4.56385 9.41284 4.50835 9.55952 4.51023C9.7062 4.51211 9.84634 4.57121 9.95006 4.67494C10.0538 4.77866 10.1129 4.9188 10.1148 5.06548C10.1166 5.21216 10.0612 5.35377 9.96012 5.46012L8.10809 7.3125L9.96012 9.16488Z" fill="white"/>
</svg>
