<svg width="16" height="16" viewBox="0 0 16 16" fill="none" xmlns="http://www.w3.org/2000/svg">
<path d="M7.53429 0.68476C4.73117 0.680073 2.12835 0.761948 2.16117 0.943198L2.85117 2.07257C4.70617 1.9132 6.47492 1.85539 8.24679 1.86726C9.90929 1.8782 11.5749 1.9507 13.3124 2.05757L14.2874 1.01757C14.1468 0.806948 10.7124 0.690073 7.53429 0.68476ZM7.65304 2.42882C6.11867 2.43257 4.58117 2.49101 2.97523 2.62632C2.29429 6.4907 1.9171 11.2063 2.80335 14.1157L1.97742 15.0844C5.98117 15.3844 10.0562 15.4813 13.9343 15.2813L12.9999 14.1688C13.603 10.8501 13.4155 6.31882 13.0062 2.60257C11.4062 2.50695 9.87179 2.4432 8.34054 2.43101L12.5343 6.28132H10.3062C10.4249 7.0032 10.9437 7.9782 11.4905 8.88132C11.7999 9.39382 12.1155 9.8907 12.3562 10.3282C12.5968 10.7657 12.7812 11.1313 12.7812 11.5001C12.7812 12.3751 12.1905 13.0938 11.3218 13.5594C10.453 14.0282 9.28742 14.2813 7.99992 14.2813C6.71242 14.2813 5.54679 14.0282 4.67804 13.5594C3.80929 13.0938 3.21867 12.3751 3.21867 11.5001C3.21867 11.1251 3.41242 10.7594 3.66554 10.3157C3.91867 9.87195 4.24679 9.37195 4.56554 8.8532C5.12804 7.94382 5.64054 6.96257 5.71242 6.28132H3.24992L7.65304 2.42882ZM7.99679 2.87789L4.74992 5.71882H6.25929L6.28117 5.97507C6.36554 6.97195 5.69054 8.10007 5.04367 9.15007C4.71867 9.67507 4.39367 10.1719 4.15617 10.5938C3.91554 11.0126 3.78117 11.3751 3.78117 11.5001C3.78117 11.9563 3.99992 12.3594 4.40929 12.7063C6.10304 12.4938 6.97179 12.3751 7.73429 12.3501C7.75304 12.0844 7.78742 11.8188 7.83117 11.5626C6.68742 11.6344 5.63429 11.3282 4.59679 10.9594C5.06242 10.0594 5.91867 9.43132 6.69054 9.43445C6.83429 9.43445 6.97492 9.4532 7.10929 9.50007C7.45929 9.61257 7.77492 10.2407 7.98429 10.7688C8.05304 10.4407 8.11867 10.1594 8.14679 9.9532V9.95007C8.17492 9.75632 8.09679 9.20007 7.99679 8.7407C7.92492 8.40945 7.84992 8.11882 7.81242 7.98132C7.61554 7.98132 7.44054 7.94382 7.32492 7.82507C6.53117 7.00007 7.04679 5.47507 7.72804 4.62507C8.21242 5.43132 8.84367 6.30007 9.47804 6.90007C9.34054 7.36257 9.09054 7.73445 8.60617 7.90007C8.54054 7.90632 8.45929 7.9157 8.37804 7.9282C8.42179 8.0907 8.48429 8.33445 8.54679 8.61882C8.58742 8.79695 8.62492 8.98132 8.65617 9.1657C8.82179 9.01257 9.01242 8.87195 9.16867 8.8657H9.20304C10.078 8.94695 11.0687 9.7907 11.3187 11.0219C10.4593 10.6282 9.47492 10.8563 8.69679 10.0782C8.60929 10.6594 8.36554 11.5344 8.29992 12.3532C9.05304 12.3782 9.92179 12.4969 11.5905 12.7063C11.9999 12.3594 12.2187 11.9563 12.2187 11.5001C12.2187 11.3688 12.0905 11.0126 11.8624 10.6001C11.6343 10.1844 11.3249 9.69382 11.0093 9.17195C10.3812 8.13445 9.71867 7.00632 9.71867 6.00007V5.71882H11.0905L7.99679 2.87789ZM7.99992 12.9032C7.30304 12.9032 6.56554 12.9969 5.16554 13.1751C5.90617 13.5157 6.89992 13.7188 7.99992 13.7188C9.09992 13.7188 10.0937 13.5157 10.8343 13.1751C9.43429 12.9969 8.69679 12.9032 7.99992 12.9032Z" fill="#282828"/>
</svg>
