<svg width="12" height="12" viewBox="0 0 12 12" fill="none" xmlns="http://www.w3.org/2000/svg">
<path d="M3.5 10.5C3.225 10.5 2.9895 10.402 2.7935 10.206C2.5975 10.01 2.49967 9.77467 2.5 9.5V3C2.35834 3 2.2395 2.952 2.1435 2.856C2.0475 2.76 1.99967 2.64134 2 2.5C2 2.35834 2.048 2.2395 2.144 2.1435C2.24 2.0475 2.35867 1.99967 2.5 2H4.5C4.5 1.85834 4.548 1.7395 4.644 1.6435C4.74 1.5475 4.85867 1.49967 5 1.5H7C7.14167 1.5 7.2605 1.548 7.3565 1.644C7.4525 1.74 7.50034 1.85867 7.5 2H9.5C9.64167 2 9.7605 2.048 9.8565 2.144C9.9525 2.24 10.0003 2.35867 10 2.5C10 2.64167 9.952 2.7605 9.856 2.8565C9.76 2.9525 9.64134 3.00034 9.5 3V9.5C9.5 9.775 9.402 10.0105 9.206 10.2065C9.01 10.4025 8.77467 10.5003 8.5 10.5H3.5ZM3.5 3V9.5H8.5V3H3.5ZM4.5 8C4.5 8.14167 4.548 8.2605 4.644 8.3565C4.74 8.4525 4.85867 8.50034 5 8.5C5.14167 8.5 5.2605 8.452 5.3565 8.356C5.4525 8.26 5.50033 8.14134 5.5 8V4.5C5.5 4.35834 5.452 4.2395 5.356 4.1435C5.26 4.0475 5.14134 3.99967 5 4C4.85834 4 4.7395 4.048 4.6435 4.144C4.5475 4.24 4.49967 4.35867 4.5 4.5V8ZM6.5 8C6.5 8.14167 6.548 8.2605 6.644 8.3565C6.74 8.4525 6.85867 8.50034 7 8.5C7.14167 8.5 7.2605 8.452 7.3565 8.356C7.4525 8.26 7.50034 8.14134 7.5 8V4.5C7.5 4.35834 7.452 4.2395 7.356 4.1435C7.26 4.0475 7.14134 3.99967 7 4C6.85834 4 6.7395 4.048 6.6435 4.144C6.5475 4.24 6.49967 4.35867 6.5 4.5V8Z" fill="white"/>
</svg>
