<svg width="14" height="14" viewBox="0 0 14 14" fill="none" xmlns="http://www.w3.org/2000/svg">
<path d="M5.31557 12.2554V11.8836C5.32377 11.8535 5.33744 11.8261 5.34291 11.7961C5.46322 11.014 6.114 10.3961 6.87688 10.3441C7.73 10.284 8.45188 10.7707 8.68704 11.5636C8.71711 11.6675 8.73899 11.7769 8.76633 11.8836V12.2554C8.75813 12.28 8.74446 12.3019 8.74172 12.3292C8.62415 13.0511 8.10461 13.6007 7.39368 13.7566C7.33899 13.7675 7.2843 13.7839 7.22961 13.7976H6.85774C6.83313 13.7894 6.80852 13.7757 6.78391 13.773C6.07297 13.6581 5.53158 13.1523 5.3675 12.4496C5.3511 12.3812 5.33197 12.3183 5.31557 12.2554ZM8.76635 1.74452L8.76633 2.11642C8.75813 2.1465 8.74446 2.17384 8.74172 2.20392C8.61868 2.99142 7.96516 3.60665 7.19407 3.65587C6.34368 3.71056 5.62454 3.21837 5.39211 2.42267C5.36204 2.32148 5.34016 2.21759 5.31555 2.11641V1.74453C5.32375 1.71992 5.33743 1.69805 5.3429 1.67344C5.47415 0.9625 5.88704 0.497656 6.5761 0.276172C6.66633 0.246094 6.76204 0.229687 6.855 0.205078H7.22688C7.25149 0.213281 7.2761 0.226953 7.30071 0.229688C8.01438 0.347266 8.55305 0.850391 8.71711 1.55313C8.73353 1.61875 8.74994 1.68164 8.76635 1.74452ZM8.76633 6.81406V7.18594C8.75813 7.21602 8.74446 7.24336 8.73899 7.27344C8.61594 8.0582 7.93782 8.68984 7.17219 8.72266C6.31086 8.76094 5.58079 8.24141 5.37571 7.44023C5.35383 7.35547 5.33469 7.2707 5.31555 7.18594V6.81406C5.32375 6.78398 5.33743 6.75664 5.3429 6.72656C5.46321 5.9418 6.14407 5.31014 6.90969 5.27461C7.77102 5.23359 8.5011 5.75586 8.70618 6.55703C8.72805 6.64453 8.74719 6.7293 8.76633 6.81406Z" fill="white"/>
</svg>
